<svg xmlns="http://www.w3.org/2000/svg" id="city-hall" width="42" height="42" viewBox="0 0 42 42">
    <defs>
        <style>
            .cls-1{fill:#002c1d}
        </style>
    </defs>
    <g id="Grupo_280">
        <g id="Grupo_279">
            <path id="Caminho_423" d="M54.7 358.4h-2.8a.7.7 0 0 0-.7.7v4.2a.7.7 0 0 0 .7.7h2.8a.7.7 0 0 0 .7-.7v-4.2a.7.7 0 0 0-.7-.7zm-.7 4.2h-1.4v-2.8H54v2.8z" class="cls-1" transform="translate(-47 -329)"/>
            <path id="Caminho_424" d="M140.733 260.9v-2.8a2.1 2.1 0 1 0-4.2 0v2.8a.7.7 0 0 0 .7.7h2.8a.7.7 0 0 0 .7-.7zm-1.4-.7h-1.4v-2.1a.7.7 0 1 1 1.4 0v2.1z" class="cls-1" transform="translate(-125.333 -235)"/>
            <path id="Caminho_425" d="M183.967 358.4h-12.6a.7.7 0 0 0 0 1.4h.7v6.3a.7.7 0 0 0 1.4 0v-6.3h3.5v2.8a.7.7 0 1 0 0 1.4v2.1a.7.7 0 0 0 1.4 0V364a.7.7 0 0 0 0-1.4v-2.8h3.5v6.3a.7.7 0 1 0 1.4 0v-6.3h.7a.7.7 0 0 0 0-1.4z" class="cls-1" transform="translate(-156.667 -329)"/>
            <path id="Caminho_426" d="M154.3 15.4a.7.7 0 0 0 .7-.7 6.166 6.166 0 0 1 4.92-6.047 9.192 9.192 0 0 0-2.12 6.047.7.7 0 0 0 1.4 0 7.653 7.653 0 0 1 2.8-6.14 7.7 7.7 0 0 1 2.8 6.14.7.7 0 0 0 1.4 0 9.192 9.192 0 0 0-2.12-6.047A6.166 6.166 0 0 1 169 14.7a.7.7 0 0 0 1.4 0c0-4.172-3.265-7.363-7.7-7.67V1.4h4.2v1.4h-2.1a.7.7 0 1 0 0 1.4h2.8a.7.7 0 0 0 .7-.7V.7a.7.7 0 0 0-.7-.7H162a.7.7 0 0 0-.7.7v6.33c-4.435.307-7.7 3.5-7.7 7.67a.7.7 0 0 0 .7.7z" class="cls-1" transform="translate(-141)"/>
            <path id="Caminho_427" d="M183.967 477.867h-12.6a.7.7 0 0 0-.7.7v1.4a.7.7 0 0 0 1.4 0v-.7h11.2v.7a.7.7 0 0 0 1.4 0v-1.4a.7.7 0 0 0-.7-.7z" class="cls-1" transform="translate(-156.667 -438.666)"/>
            <path id="Caminho_428" d="M327.766 261.6a.7.7 0 0 0 .7-.7v-2.8a2.1 2.1 0 1 0-4.2 0v2.8a.7.7 0 0 0 .7.7h2.8zm-2.1-3.5a.7.7 0 1 1 1.4 0v2.1h-1.4v-2.1z" class="cls-1" transform="translate(-297.666 -235)"/>
            <path id="Caminho_429" d="M410.3 261.6h2.8a.7.7 0 0 0 .7-.7v-2.8a2.1 2.1 0 1 0-4.2 0v2.8a.7.7 0 0 0 .7.7zm.7-3.5a.7.7 0 1 1 1.4 0v2.1H411v-2.1z" class="cls-1" transform="translate(-375.999 -235)"/>
            <path id="Caminho_430" d="M41.3 187.733a.7.7 0 0 0-.7.7v.7H1.4v-.7a.7.7 0 0 0-1.4 0v25.2a.7.7 0 0 0 .7.7h11.2a.7.7 0 0 0 .7-.7v-2.8a1.4 1.4 0 0 0-1.4-1.4 1.388 1.388 0 0 0-.7.188 1.454 1.454 0 0 0-1.4 0 1.454 1.454 0 0 0-1.4 0 1.454 1.454 0 0 0-1.4 0 1.454 1.454 0 0 0-1.4 0 1.454 1.454 0 0 0-1.4 0 1.454 1.454 0 0 0-1.4 0 1.389 1.389 0 0 0-.7-.188v-18.9h39.2v18.9a1.388 1.388 0 0 0-.7.188 1.454 1.454 0 0 0-1.4 0 1.454 1.454 0 0 0-1.4 0 1.454 1.454 0 0 0-1.4 0 1.454 1.454 0 0 0-1.4 0 1.454 1.454 0 0 0-1.4 0 1.454 1.454 0 0 0-1.4 0 1.4 1.4 0 0 0-2.1 1.212v2.8a.7.7 0 0 0 .7.7h11.2a.7.7 0 0 0 .7-.7v-25.2a.7.7 0 0 0-.7-.7zm-39.2 23.8a.7.7 0 0 0 .7-.7.7.7 0 0 0 1.4 0 .7.7 0 0 0 1.4 0 .7.7 0 0 0 1.4 0 .7.7 0 0 0 1.4 0 .7.7 0 0 0 1.4 0 .7.7 0 0 0 1.4 0v2.1H1.4v-2.1a.7.7 0 0 0 .7.7zm38.5 1.4h-9.8v-2.1a.7.7 0 1 0 1.4 0 .7.7 0 1 0 1.4 0 .7.7 0 1 0 1.4 0 .7.7 0 1 0 1.4 0 .7.7 0 1 0 1.4 0 .7.7 0 1 0 1.4 0 .7.7 0 1 0 1.4 0v2.1z" class="cls-1" transform="translate(0 -172.333)"/>
            <path id="Caminho_431" d="M409.6 363.3a.7.7 0 0 0 .7.7h2.8a.7.7 0 0 0 .7-.7v-4.2a.7.7 0 0 0-.7-.7h-2.8a.7.7 0 0 0-.7.7zm1.4-3.5h1.4v2.8H411z" class="cls-1" transform="translate(-376 -329)"/>
            <path id="Caminho_432" d="M233.9 261.6a.7.7 0 0 0 .7-.7v-2.8a2.1 2.1 0 1 0-4.2 0v2.8a.7.7 0 0 0 .7.7h2.8zm-2.1-3.5a.7.7 0 1 1 1.4 0v2.1h-1.4v-2.1z" class="cls-1" transform="translate(-211.5 -235)"/>
            <path id="Caminho_433" d="M55.4 258.1a2.1 2.1 0 1 0-4.2 0v2.8a.7.7 0 0 0 .7.7h2.8a.7.7 0 0 0 .7-.7v-2.8zm-1.4 2.1h-1.4v-2.1a.7.7 0 1 1 1.4 0z" class="cls-1" transform="translate(-47 -235)"/>
        </g>
    </g>
</svg>
